<svg xmlns="http://www.w3.org/2000/svg" width="27.051" height="20.658" viewBox="0 0 27.051 20.658">
  <g id="email" opacity="0.8">
    <g id="Group_2" data-name="Group 2" transform="translate(0 0)">
      <path id="Path_2" data-name="Path 2" d="M25.994,72.7a1.057,1.057,0,0,0,1.057-1.057V64.727A4.232,4.232,0,0,0,22.824,60.5H4.227A4.232,4.232,0,0,0,0,64.727v12.2a4.232,4.232,0,0,0,4.227,4.227h18.6a4.232,4.232,0,0,0,4.227-4.227,1.057,1.057,0,1,0-2.113,0,2.116,2.116,0,0,1-2.113,2.113H4.227a2.116,2.116,0,0,1-2.113-2.113V64.951l9.18,5.708a4.2,4.2,0,0,0,4.464,0l9.18-5.708v6.7A1.057,1.057,0,0,0,25.994,72.7Zm-11.353-3.84a2.1,2.1,0,0,1-2.232,0L3,63.01a2.1,2.1,0,0,1,1.232-.4h18.6a2.1,2.1,0,0,1,1.232.4Z" transform="translate(0 -60.5)" fill="#fff"/>
    </g>
  </g>
</svg>
