<svg xmlns="http://www.w3.org/2000/svg" width="26.352" height="22.555" viewBox="0 0 26.352 22.555">
  <g id="Group_1514" data-name="Group 1514" transform="translate(-276.087 -67.047)">
    <path id="Path_87" data-name="Path 87" d="M26.361,5.625H9.215A2.817,2.817,0,0,0,6.4,8.442a.857.857,0,1,0,1.715,0,1.105,1.105,0,0,1,1.1-1.1H26.361a1.105,1.105,0,0,1,1.1,1.1V24.363a1.105,1.105,0,0,1-1.1,1.1H9.215a1.105,1.105,0,0,1-1.1-1.1.857.857,0,1,0-1.715,0A2.817,2.817,0,0,0,9.215,27.18H26.361a2.817,2.817,0,0,0,2.817-2.817V8.442A2.817,2.817,0,0,0,26.361,5.625Z" transform="translate(272.761 61.922)" fill="#7b7b7b" stroke="#7b7b7b" stroke-width="1"/>
    <path id="Path_88" data-name="Path 88" d="M14.161,21.861a.865.865,0,0,0,0,1.212l.006.006a.886.886,0,0,0,.6.239.827.827,0,0,0,.606-.251l5.058-5.046a1.2,1.2,0,0,0,0-1.788l-5.18-5.168a.852.852,0,0,0-.606-.251.837.837,0,0,0-.606.251.854.854,0,0,0,0,1.212l3.993,3.931H4.3a.857.857,0,1,0,0,1.715H18.056Z" transform="translate(273.141 61.538)" fill="#7b7b7b" stroke="#7b7b7b" stroke-width="1"/>
  </g>
</svg>
