<svg xmlns="http://www.w3.org/2000/svg" width="125.669" height="83.779" viewBox="0 0 125.669 83.779">
  <path id="Icon_metro-mastercard" data-name="Icon metro-mastercard" d="M39.169,54.2H38.46q-2.564,0-2.564,1.745,0,1.2,1.091,1.2a1.822,1.822,0,0,0,1.527-.818A3.786,3.786,0,0,0,39.169,54.2Zm21.545-1.964H64.1v-.164a.838.838,0,0,0,.027-.355q-.027-.136-.055-.382a1.534,1.534,0,0,0-.109-.436,1.134,1.134,0,0,0-.245-.355,1.339,1.339,0,0,0-.409-.273,1.555,1.555,0,0,0-.627-.109q-1.527,0-1.964,2.073ZM90.168,54.2h-.655q-2.618,0-2.618,1.745,0,1.2,1.091,1.2a1.822,1.822,0,0,0,1.527-.818A3.786,3.786,0,0,0,90.168,54.2Zm17.4-1.418q0-2.236-1.636-2.236a1.935,1.935,0,0,0-1.691,1.091,5.339,5.339,0,0,0-.655,2.782q0,2.291,1.527,2.291a2.033,2.033,0,0,0,1.773-1.091A5.284,5.284,0,0,0,107.567,52.779ZM28.752,45.088H33.5l-2.4,14.29H28.043l1.745-10.963L25.915,59.378H23.788L23.57,48.469,21.715,59.378H18.825l2.4-14.29h4.418l.109,8.891Zm13.8,5.836q0,.327-.218,2.291-.873,5.509-.927,6.163H38.842l.055-1.2A3.75,3.75,0,0,1,35.733,59.6a2.634,2.634,0,0,1-2.045-.873,3.28,3.28,0,0,1-.791-2.291,4.043,4.043,0,0,1,1.418-3.3A6.081,6.081,0,0,1,38.3,51.96a11.763,11.763,0,0,1,1.255.055,1.531,1.531,0,0,1,.027-.3q.027-.136.055-.245a.752.752,0,0,0,.027-.164q0-1.091-1.964-1.091a10.138,10.138,0,0,0-3.218.545q0-.218.382-2.618a13.361,13.361,0,0,1,3.654-.6q4.036,0,4.036,3.382ZM51.06,47.76l-.436,2.673a16.616,16.616,0,0,0-2.236-.164q-1.473,0-1.473.927a.831.831,0,0,0,.245.655,4.932,4.932,0,0,0,1.173.6,3.426,3.426,0,0,1,2.182,3.273q0,3.927-4.745,3.873a13.214,13.214,0,0,1-3.164-.327q0-.109.382-2.673a10.64,10.64,0,0,0,2.782.436q1.745,0,1.745-1.036a.849.849,0,0,0-.245-.627,4.874,4.874,0,0,0-1.173-.682,3.465,3.465,0,0,1-2.345-3.218q0-3.927,4.582-3.927A14.239,14.239,0,0,1,51.06,47.76Zm4.8,0h1.527L57.005,50.6H55.423q-.109.927-.355,2.209t-.382,2.1a9.68,9.68,0,0,0-.136.982q0,.873,1.036.873a3.586,3.586,0,0,0,.873-.109l-.436,2.564a6.9,6.9,0,0,1-2.182.382q-2.345,0-2.454-2.564a23.579,23.579,0,0,1,.436-3.054q.164-1.091,1.364-7.963h3Zm11.072,3.982a12.223,12.223,0,0,1-.382,2.836H60.5a1.868,1.868,0,0,0,.545,1.8,3.131,3.131,0,0,0,2.073.6,6.991,6.991,0,0,0,3.164-.764l-.491,2.945a12.075,12.075,0,0,1-3.109.436q-5.182,0-5.182-5.182A7.824,7.824,0,0,1,59,49.479a4.606,4.606,0,0,1,3.791-1.936,4.036,4.036,0,0,1,3.027,1.145,4.185,4.185,0,0,1,1.118,3.054Zm7.582-4.036a12.861,12.861,0,0,0-1.2,3.382q-1.2-.109-1.691,1.309a55.209,55.209,0,0,0-1.364,6.982H67.2l.164-.764q1.2-7.091,1.582-10.854h2.782l-.164,1.8a6.511,6.511,0,0,1,1.391-1.609,1.8,1.8,0,0,1,1.555-.245Zm10.2-2.236-.491,3.109a6.227,6.227,0,0,0-2.727-.764,3.31,3.31,0,0,0-2.782,1.5,6.375,6.375,0,0,0-1.091,3.845,4.02,4.02,0,0,0,.736,2.564,2.525,2.525,0,0,0,2.1.927,6.166,6.166,0,0,0,2.618-.709l-.545,3.218A10.057,10.057,0,0,1,79.8,59.6a4.9,4.9,0,0,1-3.9-1.664,6.624,6.624,0,0,1-1.445-4.5A9.706,9.706,0,0,1,76.4,47.187a6.1,6.1,0,0,1,4.991-2.427,9.779,9.779,0,0,1,3.327.709Zm8.836,5.454a14.163,14.163,0,0,1-.218,2.291q-.709,4.309-.927,6.163H89.895l.055-1.2A3.81,3.81,0,0,1,86.731,59.6a2.551,2.551,0,0,1-2.018-.873,3.353,3.353,0,0,1-.764-2.291,4.079,4.079,0,0,1,1.391-3.3,5.968,5.968,0,0,1,3.954-1.173,10.857,10.857,0,0,1,1.255.055,2.592,2.592,0,0,0,.109-.709q0-1.091-1.964-1.091a10.138,10.138,0,0,0-3.218.545q0-.218.436-2.618a13.361,13.361,0,0,1,3.654-.6q3.982,0,3.982,3.382Zm7.691-3.218a10.51,10.51,0,0,0-1.145,3.382,1.571,1.571,0,0,0-1.718,1.255,61.489,61.489,0,0,0-1.391,7.036H93.931l.164-.764q1.036-5.673,1.582-10.854h2.836a11.066,11.066,0,0,1-.218,1.8,7.337,7.337,0,0,1,1.445-1.609,1.707,1.707,0,0,1,1.5-.245Zm7.691-2.618h3.054l-2.345,14.29h-2.891l.164-1.036a3.914,3.914,0,0,1-2.836,1.255,3.236,3.236,0,0,1-2.7-1.309,5.569,5.569,0,0,1-1.009-3.491,8.483,8.483,0,0,1,1.5-5.018,4.285,4.285,0,0,1,3.518-2.127,3.54,3.54,0,0,1,2.891,1.582Zm6.054,7.091A29.672,29.672,0,0,0,67.423,28.507,31.273,31.273,0,0,1,76.75,44H74.023A29.368,29.368,0,0,0,65.4,30.2,29.368,29.368,0,0,0,56.787,44H54.06a31.273,31.273,0,0,1,9.327-15.49,29.79,29.79,0,0,0-32.808-2.018,29.828,29.828,0,0,0-10.8,40.58A29.613,29.613,0,0,0,45.5,81.85a29.142,29.142,0,0,0,17.89-6,31.37,31.37,0,0,1-9-14.4h2.727A29.123,29.123,0,0,0,65.4,74.16,29.123,29.123,0,0,0,73.7,61.451h2.727a31.368,31.368,0,0,1-9,14.4,29.62,29.62,0,0,0,47.562-23.672Zm13.254-34.908V87.087a7.079,7.079,0,0,1-6.982,6.982H9.552A6.71,6.71,0,0,1,4.643,92a6.709,6.709,0,0,1-2.073-4.909V17.271a6.71,6.71,0,0,1,2.073-4.909,6.709,6.709,0,0,1,4.909-2.073H121.257a6.71,6.71,0,0,1,4.909,2.073A6.709,6.709,0,0,1,128.239,17.271Z" transform="translate(-2.571 -10.289)"/>
</svg>
