<svg xmlns="http://www.w3.org/2000/svg" width="115.582" height="77.055" viewBox="0 0 115.582 77.055">
  <path id="Icon_metro-visa" data-name="Icon metro-visa" d="M101.648,53.532H94.725q.7-1.856,3.311-8.98l.15-.451q.2-.5.5-1.3t.451-1.3l.6,2.759ZM29.209,50.271l-2.91-14.8q-.552-2.709-3.762-2.709H9.092l-.1.652q15.6,3.963,20.217,16.856Zm8.98-17.508L30.061,54.736l-.853-4.465a18.24,18.24,0,0,0-4.264-6.5,19.455,19.455,0,0,0-6.572-4.44L25.145,64.92h8.779L47.018,32.763H38.188ZM45.161,64.97h8.328l5.217-32.206H50.379Zm38.527-31.4a20.331,20.331,0,0,0-7.475-1.355,16.26,16.26,0,0,0-10.083,2.96,9.333,9.333,0,0,0-3.963,7.675q-.05,5.117,7.274,8.729A13.875,13.875,0,0,1,72.8,53.632a2.672,2.672,0,0,1,.953,1.956,2.51,2.51,0,0,1-1.5,2.308,7.243,7.243,0,0,1-3.461.8,18.125,18.125,0,0,1-7.826-1.655l-1.1-.552-1.154,7.224a22.227,22.227,0,0,0,9.281,1.706q6.522.05,10.46-2.96a9.863,9.863,0,0,0,4.038-8.027q0-5.318-7.023-8.729A24.242,24.242,0,0,1,71.9,43.6a2.415,2.415,0,0,1-1.1-1.906,2.343,2.343,0,0,1,1.229-1.931,6.319,6.319,0,0,1,3.537-.828,14.162,14.162,0,0,1,6.221,1.2l.752.4Zm21.32-.8H98.588a4.261,4.261,0,0,0-4.364,2.709L81.883,64.97h8.729l1.756-4.816H103q.251,1.1,1,4.816h7.726ZM118.152,16.71V80.922a6.51,6.51,0,0,1-6.421,6.421H8.992a6.171,6.171,0,0,1-4.515-1.906,6.17,6.17,0,0,1-1.906-4.515V16.71A6.171,6.171,0,0,1,4.477,12.2a6.17,6.17,0,0,1,4.515-1.906H111.731a6.171,6.171,0,0,1,4.515,1.906,6.17,6.17,0,0,1,1.906,4.515Z" transform="translate(-2.571 -10.289)"/>
</svg>
