<svg xmlns="http://www.w3.org/2000/svg" width="173.437" height="60.704" viewBox="0 0 173.437 60.704">
  <path id="Icon_payment-cash-on-delivery" data-name="Icon payment-cash-on-delivery" d="M28.159,24.2a6.821,6.821,0,0,0-4.2,1.4,9.6,9.6,0,0,0-3,4.123,15.089,15.089,0,0,0-1.132,5.851,6.415,6.415,0,0,0,1.212,4.286,4.852,4.852,0,0,0,3.866,1.4,16.746,16.746,0,0,0,5.979-1.331v4.494a19.9,19.9,0,0,1-7.076,1.331,9.255,9.255,0,0,1-6.987-2.584q-2.495-2.585-2.493-7.321a18.948,18.948,0,0,1,1.839-8.34,13.809,13.809,0,0,1,4.917-5.791,12.79,12.79,0,0,1,7.076-1.979,17.931,17.931,0,0,1,3.926.388,15.1,15.1,0,0,1,3.679,1.427l-2.088,4.321a15.049,15.049,0,0,0-3.1-1.349A9.365,9.365,0,0,0,28.159,24.2ZM50.112,39.4H41.746L38.7,45.414H33.044L46.591,20.038h6.6l2.6,25.376H50.535L50.112,39.4ZM49.847,34.9l-.459-6.051q-.176-2.263-.178-4.373v-.622a47.287,47.287,0,0,1-1.927,4.39L43.957,34.9h5.89ZM75.6,37.946a6.932,6.932,0,0,1-2.617,5.713,11.021,11.021,0,0,1-7.094,2.1A11.359,11.359,0,0,1,59.6,44.2V39.465a13.335,13.335,0,0,0,6.333,1.867,5.589,5.589,0,0,0,3.1-.735,2.293,2.293,0,0,0,1.114-2.014,3.327,3.327,0,0,0-.239-1.305,3.625,3.625,0,0,0-.681-1.045,18.174,18.174,0,0,0-2.194-1.763,11.665,11.665,0,0,1-3.432-3.389A6.975,6.975,0,0,1,62.6,27.47a7.2,7.2,0,0,1,4.219-6.716,10.585,10.585,0,0,1,4.661-.976,14.6,14.6,0,0,1,7.022,1.711l-1.927,4.028a12.225,12.225,0,0,0-5.095-1.279,3.651,3.651,0,0,0-2.406.778,2.54,2.54,0,0,0-.936,2.057,3.01,3.01,0,0,0,.583,1.841A10.647,10.647,0,0,0,71.341,31a10.374,10.374,0,0,1,3.2,3.05,7.109,7.109,0,0,1,1.06,3.9Zm23.44,7.469H93.632L96,34.507H87.669L85.3,45.414H79.906l5.465-25.272h5.411l-2.14,9.905h8.331l2.14-9.905h5.394L99.043,45.414ZM140.88,29.2a20.983,20.983,0,0,1-1.752,8.756,13.2,13.2,0,0,1-4.793,5.834,12.588,12.588,0,0,1-7,1.971,9.524,9.524,0,0,1-7.065-2.549,9.6,9.6,0,0,1-2.538-7.078,20.08,20.08,0,0,1,1.752-8.427,13.736,13.736,0,0,1,4.828-5.9,12.489,12.489,0,0,1,7.111-2.057,9.427,9.427,0,0,1,6.987,2.489,9.44,9.44,0,0,1,2.474,6.966Zm-9.906-5a5.789,5.789,0,0,0-3.926,1.583,10.542,10.542,0,0,0-2.8,4.347,17.236,17.236,0,0,0-1.017,6,5.538,5.538,0,0,0,1.177,3.837,4.25,4.25,0,0,0,3.317,1.3,5.857,5.857,0,0,0,3.9-1.5,9.837,9.837,0,0,0,2.751-4.251,18.084,18.084,0,0,0,.991-6.172,5.66,5.66,0,0,0-1.149-3.794,4.047,4.047,0,0,0-3.241-1.34Zm33.981,21.212h-6.048l-6.3-19.119h-.106l-.072.553q-.566,3.733-1.166,6.673L148.7,45.414h-4.865L149.3,20.142h6.315l6.014,18.616h.072q.211-1.314.689-3.751t3.185-14.866h4.843l-5.465,25.272ZM29.015,64.271a19.46,19.46,0,0,1-1.8,8.657A12.622,12.622,0,0,1,22,78.524a16.119,16.119,0,0,1-8.049,1.923H5.656L11.34,54.431h7.284q4.966,0,7.679,2.545t2.712,7.3ZM14.208,75.892a8.337,8.337,0,0,0,4.746-1.353,8.868,8.868,0,0,0,3.163-3.976,14.934,14.934,0,0,0,1.14-6.005,5.913,5.913,0,0,0-1.333-4.173,4.98,4.98,0,0,0-3.835-1.433H15.975l-3.716,16.94h1.949Zm32.91,4.555H32.09l5.685-26.016H52.82l-.993,4.52H42.409l-1.232,5.713h8.774l-1.012,4.52H40.165l-1.472,6.708h9.418l-.993,4.555Zm6.331,0,5.685-26.016h5.628L60.052,75.892H69.47l-1,4.555Zm20.455,0,5.739-26.016h5.611L79.514,80.446H73.9Zm21.929-5.32a50.668,50.668,0,0,1,2.023-5.036L105.8,54.431h5.812L97.855,80.446H91.711L89.376,54.431H94.8l.939,15.659q.075.8.074,2.367-.036,1.834-.111,2.669h.128Zm29.326,5.32H110.13l5.685-26.016h15.046l-.993,4.52H120.45l-1.232,5.713h8.774l-1.012,4.52h-8.774l-1.472,6.708h9.418l-.993,4.555Zm14.128-9.983-2.19,9.983h-5.61l5.685-26.016h6.6q4.357,0,6.547,1.815a6.516,6.516,0,0,1,2.19,5.32,7.782,7.782,0,0,1-1.526,4.83,8.933,8.933,0,0,1-4.4,3l4.8,11.052h-6.107l-3.807-9.983h-2.188Zm.976-4.483H141.7a6.11,6.11,0,0,0,3.753-1.015,3.63,3.63,0,0,0,1.342-3.1,2.69,2.69,0,0,0-.874-2.19,4.254,4.254,0,0,0-2.749-.731h-1.361l-1.546,7.031Zm25.66-1.015L172.8,54.431h6.291L167.726,70.5l-2.19,9.947h-5.574l2.19-9.947-4.34-16.069h5.739l2.372,10.534Z" transform="translate(-5.656 -19.743)"/>
</svg>
