<svg xmlns="http://www.w3.org/2000/svg" width="54" height="54" viewBox="0 0 54 54">
  <g id="Group_175" data-name="Group 175" transform="translate(-0.302 -0.066)">
    <g id="Ellipse_6" data-name="Ellipse 6" transform="translate(0.302 0.066)" fill="#fff" stroke="#e2e2e2" stroke-width="1">
      <circle cx="27" cy="27" r="27" stroke="none"/>
      <circle cx="27" cy="27" r="26.5" fill="none"/>
    </g>
    <g id="heart" transform="translate(16.3 17.659)">
      <g id="Group_160" data-name="Group 160" transform="translate(0 0)">
        <path id="Path_75" data-name="Path 75" d="M21.273,41.454a6.121,6.121,0,0,0-4.405-1.782,5.782,5.782,0,0,0-5.294,2.822l-.028.048-.028-.048a5.782,5.782,0,0,0-5.294-2.822,6.121,6.121,0,0,0-4.405,1.782A6.613,6.613,0,0,0,0,46.224c0,4.068,3.616,6.765,6.807,9.145a22.933,22.933,0,0,1,4.037,3.48.9.9,0,0,0,1.405,0,13.777,13.777,0,0,1,2.127-2.021.9.9,0,0,0-1.13-1.407,19.5,19.5,0,0,0-1.7,1.511,31.859,31.859,0,0,0-3.661-3.01C4.9,51.693,1.8,49.387,1.8,46.224c0-2.8,1.818-4.748,4.42-4.748a4.05,4.05,0,0,1,3.714,1.892,5.247,5.247,0,0,1,.709,2.04.9.9,0,0,0,1.8,0,5.244,5.244,0,0,1,.709-2.044,4.051,4.051,0,0,1,3.714-1.892c2.6,0,4.42,1.952,4.42,4.748,0,2.618-2.131,4.647-4.434,6.45a.9.9,0,0,0,1.112,1.42,19.123,19.123,0,0,0,3.505-3.378,7.326,7.326,0,0,0,1.621-4.493A6.614,6.614,0,0,0,21.273,41.454Z" transform="translate(0 -39.672)" fill="#646464"/>
      </g>
    </g>
  </g>
</svg>
