<svg xmlns="http://www.w3.org/2000/svg" width="203.034" height="130.625" viewBox="0 0 203.034 130.625">
  <path id="Path_1044" data-name="Path 1044" d="M-35.164-17.323h.356l-.2-.514h-.237q-.317,0-.317-.4a2.435,2.435,0,0,1,.673-1.384v-.4q0-.672,1.5-2.333l.594.079-.079-.831.238-.554a7.515,7.515,0,0,0,.316-.91l.475-.079.079-.475v-.4a.858.858,0,0,1,.832-.989,2.589,2.589,0,0,1-.158-.633.868.868,0,0,1,.316-.554l.238-.514a3.613,3.613,0,0,1,.693-.929,3.091,3.091,0,0,0,.693-1.048,3.879,3.879,0,0,1,.555-.989l.079-.356a9.036,9.036,0,0,1,1.346-1.78l1.307-1.384q.277-.079.594-.929t.831-.85h.158q.158.158.238.158a.07.07,0,0,0,.079-.079l-.079-.633q.792-.791.792-1.068,0-.633,1.98-1.938.237-.079.416-.514a4.153,4.153,0,0,1,1.287-1.266l.317-.316q.673-.554,1.03-.791a2.922,2.922,0,0,1,2.376-1.78l.237-.2a1.009,1.009,0,0,1,.99-.87,3.45,3.45,0,0,1,2.647-1.384,1.493,1.493,0,0,1-.079-.475q0-.514.553-.514a3.353,3.353,0,0,1,.593.2,2.4,2.4,0,0,1,1.007-1.147,2.561,2.561,0,0,0,.731-.435,1.42,1.42,0,0,1,.514-.316,1.316,1.316,0,0,1,.534-.158A2.286,2.286,0,0,0-7.026-50.7a2.758,2.758,0,0,0,.83-.4h.237l.158.079a2.333,2.333,0,0,1,1.384-.751l1.107-.4a1.178,1.178,0,0,1,.494.119,1.113,1.113,0,0,0,.336.119,2.775,2.775,0,0,0,.791-.316h.158a3.1,3.1,0,0,0,1.483.356q.969.04,1.285,1.345l.475.989a1.866,1.866,0,0,1,.237.791A1.958,1.958,0,0,0,2.169-47.7a1,1,0,0,1,.218.475,1.549,1.549,0,0,1-.218.653,2.246,2.246,0,0,0-.218,1.048,2.215,2.215,0,0,1-.316.831l-.316.712Q.251-40.342-.7-40.342q-2.294,0-2.294-1.463,0-1.5,2.294-3.48a3.451,3.451,0,0,0,.712-1.048,3.67,3.67,0,0,0,.475-1.127q0-.751-.712-.751a1.957,1.957,0,0,0-1.127.336,2.6,2.6,0,0,1-1.187.415,2.341,2.341,0,0,0-.929.237l-.633.316a21.982,21.982,0,0,0-2.373,1.463l-10.68,8.5-.158.633a2.94,2.94,0,0,1-.653.475,1.937,1.937,0,0,0-.811,1.147,7.106,7.106,0,0,1-1.7,2.136l-1.384,1.859-.316.712a15.54,15.54,0,0,0-2.848,3.322,4.686,4.686,0,0,1-1.345,1.226.07.07,0,0,0-.079.079l.158.633v.158q0,.435-2.61,4.153l-.079.158a6.242,6.242,0,0,1-.732,2.294,4.836,4.836,0,0,0-.613,1.266,2.829,2.829,0,0,1-.435.929,4.98,4.98,0,0,0-.573,1.187,5.1,5.1,0,0,1-.494,1.088,1.616,1.616,0,0,0-.277.732,3.389,3.389,0,0,1-.514,1.167,7.135,7.135,0,0,1,.237.831q0,.158-.633,2.729v.158a2.045,2.045,0,0,0,.316.989q.316.554.554.554a8.053,8.053,0,0,0,2.056-1.028A8.251,8.251,0,0,0-27.6-9.413l.949-.475.593-.554a5.992,5.992,0,0,0,1.028-.158q.712-1.7,1.225-1.938h.751a1.365,1.365,0,0,0,.395-1.068q0-.237,1.127-1.424t1.7-1.859a4.194,4.194,0,0,1,.731-.751,4.546,4.546,0,0,1,1.146-1.444,4.752,4.752,0,0,0,1.206-1.582q.3-.732.889-.732.554,0,.554-.237a1.91,1.91,0,0,1,.237-.633l.078-.316a5.612,5.612,0,0,1,1.226-1.384l.316-.4a1.9,1.9,0,0,1,.593-.831l.474-.475a1.527,1.527,0,0,1,.514-.91,5.461,5.461,0,0,0,.969-1.365A8.052,8.052,0,0,1-9.73-29.584a4.1,4.1,0,0,0,1.522-2.2,4.7,4.7,0,0,1,1.561-2.314l.975-1.622a2.107,2.107,0,0,1,1.7-.91q.831,0,2.116,1.72A5.578,5.578,0,0,1-.569-31.6l-.356,1.582a6.755,6.755,0,0,1-.91,2.788,3.512,3.512,0,0,0-.692,1.4,3.021,3.021,0,0,1-.653,1.305,6.319,6.319,0,0,0-.949,2.254l-1.147,2.175-.316.91q-.435,1.5-.475,1.78a1.4,1.4,0,0,1-.138.336,1.908,1.908,0,0,1-.218.316,1.6,1.6,0,0,0-.237.435,1.165,1.165,0,0,1-.138.3q-.02,0-.02-.04a4.582,4.582,0,0,0-.475,1.068q0,.4.237.4a1.108,1.108,0,0,0,.732-.475,2.766,2.766,0,0,1,.811-.672A.965.965,0,0,0-5-16.275a1.717,1.717,0,0,1,.772-.732,2.618,2.618,0,0,1,.812-.4H-3.1A4.807,4.807,0,0,0-1.71-18.51a5.736,5.736,0,0,1,1.268-.712l1.188-.554a5.807,5.807,0,0,0,2.02-1.463l.475.079a3.145,3.145,0,0,1,.832-.316q.238,0,.238.831a.837.837,0,0,1-.533.751,1.576,1.576,0,0,0-.612.435l.079.277v.158a2.884,2.884,0,0,1-.593,1.483,2.138,2.138,0,0,1-1.3,1.028A1.3,1.3,0,0,0,.36-15.8a1.622,1.622,0,0,1-.434.653,1.962,1.962,0,0,0-.554-.237H-.786a1.126,1.126,0,0,0-.731.435A8.3,8.3,0,0,1-3-13.843l-.632.554a.684.684,0,0,1-.553.316,25.379,25.379,0,0,0-2.371,1.7A4.975,4.975,0,0,0-9.2-9.334l-.751,1.226a5.466,5.466,0,0,1-.553.91l-.632,2.413a4.778,4.778,0,0,1-.83,1.226v.079l.158.87a4.869,4.869,0,0,1-.612.85A8.035,8.035,0,0,0-13.51.91l-.711,2.413-.4.633a3.961,3.961,0,0,0-.75,1.068A2.632,2.632,0,0,1-16.434,7.04q-.079.237-.711,1.7l-.474,1.622-.754.91-.159.633q-.239.316-.675.89a4.981,4.981,0,0,0-.734,1.5,3.911,3.911,0,0,1-1.072,1.661q-.774.732-.774,1.127a10.1,10.1,0,0,1-1.33,1.938A9.018,9.018,0,0,0-24.605,21.4a.983.983,0,0,1-.992.712,2.07,2.07,0,0,0-.2.692.826.826,0,0,1-.615.732,1.168,1.168,0,0,0-.774.692.975.975,0,0,1-.953.573q-.794,0-.992.356a.587.587,0,0,1-.516.356,2.771,2.771,0,0,1-3.015-2.254,1.56,1.56,0,0,0-.376-.732,1.32,1.32,0,0,1-.336-.771,4.188,4.188,0,0,0-.435-1.266v-.079l.158-.475q.079,0,.079-.158l-.237-.831a5.751,5.751,0,0,0,.4-1.463l-.079-.949q-.119-.87,1.384-3.916a14.492,14.492,0,0,0,1.781-4.271,5.452,5.452,0,0,1,.673-.831l.792-1.424.316-.356a.88.88,0,0,1-.079-.4q0-.475.772-.969a2.71,2.71,0,0,0,.93-.811l.515-.633.475-.831q.158-1.107.95-1.107a.907.907,0,0,1,.277.079A1.224,1.224,0,0,0-24.468.4V.237l-.08-.4a3.5,3.5,0,0,1,.713-.87l1.465-1.463.4-.672,2.454-2.1a7.887,7.887,0,0,0,.713-.91l3.72-3.718.317-.158q.356-.158.356-.237a3.232,3.232,0,0,1,.514-1.681,7.935,7.935,0,0,0,.752-1.562V-14a3.471,3.471,0,0,0,.356-.593l.4-.316a1.032,1.032,0,0,1,.316-.633l-.079-.831a5.341,5.341,0,0,0,.91-1.384,4.635,4.635,0,0,1,.791-2.017v-.316a1.845,1.845,0,0,1,.791-1.463q.119,0,.4-.791t.277-.831l-.079-.475a6.2,6.2,0,0,1-2.294,2.1,18.867,18.867,0,0,0-2.491,2.808q-.316.514-.474.514h-.514q-.158,0-.554.376t-.4.534l.237.791a4.566,4.566,0,0,0-.474.593l-.079.079-.435-.079-.158.237.079.554a2.029,2.029,0,0,0-.178.277,4.436,4.436,0,0,1-1.166.87q-.514.989-.949,1.088t-.435.455q0,.989-1.384,1.7a1.116,1.116,0,0,0-.356.356,8.754,8.754,0,0,1-.632.751l-.237.435a.607.607,0,0,0-.237.079l-.475.079q-.2.079-.514,1.028l-.158.158-.474.079a1.873,1.873,0,0,0-.316.751l-2.689,2.65-1.779.593a6.28,6.28,0,0,1-1.819.316,2.485,2.485,0,0,1-1.9-.712q-.079,0-.158-.119l-.988.119q-.277,0-1.266-.91l-.751-.4q0-.04-1.008-1.226T-37.5-8.345l-.079-1.384.079-.712-.079-1.622a3.134,3.134,0,0,1,.317-1.127,5.179,5.179,0,0,0,.356-.989,1.2,1.2,0,0,1,.317-.573l.079-.554a.949.949,0,0,1,.277-.732,2.842,2.842,0,0,0,.435-.494l.159-.158.633.079-.237-.633A.07.07,0,0,1-35.164-17.323Zm4.776,34.646-.237.514.237.949-.158,1.7q0,.91.4.91a5.759,5.759,0,0,0,1.9-1.681,11.879,11.879,0,0,1,1.031-1.325,4.43,4.43,0,0,0,.734-1.325q.416-1.009.575-1.009h.4q.317,0,.317-1.147,0-.119.376-1.424t.771-1.424a2.63,2.63,0,0,0,.158-.633l.554-.712a4.624,4.624,0,0,0,.435-.831l.237-.989q.791-2.373,1.938-2.729.158-.079.158-.356l.356-1.187a2.3,2.3,0,0,1,1.345-1.938V2.61a2.223,2.223,0,0,0-.079-.514V1.859a1.088,1.088,0,0,1,.2-.554,3.421,3.421,0,0,0,.356-.929,3.471,3.471,0,0,1,.831-1.365v-.475A1.236,1.236,0,0,1-16.91-2.67a1,1,0,0,0,.653-.89l-.2-.91-.158.079q0,.751-1.009,1.266a3.02,3.02,0,0,0-1.285,1.009,1.193,1.193,0,0,1-.811.613q-.534.119-.613,1.345A2.615,2.615,0,0,1-21.5.4,1.514,1.514,0,0,0-22.625,1.78q-.119,1.068-.554,1.226l-.949.158a1.089,1.089,0,0,0-.494.633,14.32,14.32,0,0,1-1.446,2.215l-.594,1.424-.4.435a8.59,8.59,0,0,0-1.031,2.966l-.674,1.147a1.566,1.566,0,0,0-.555,1.068,5.827,5.827,0,0,1-.751,1.938v.633a2.762,2.762,0,0,0-.4.831ZM20.883-36.782h-.158l-.316.158q-.316,0-1.305-.949l-.4-.158a3.309,3.309,0,0,1-1.167-1.325,3.865,3.865,0,0,1-.613-1.918,1.46,1.46,0,0,1,.237-.653,5.064,5.064,0,0,0,.415-1.542,1.655,1.655,0,0,1,1.206-1.444q.4-.119.4-.356a.607.607,0,0,0-.079-.237v-.079a5.661,5.661,0,0,1,.732-1.266A10.792,10.792,0,0,0,21.1-49.6q.534-1.938,1.839-1.938.633,0,1.938,1.76a5.374,5.374,0,0,1,1.305,2.63,3.57,3.57,0,0,1-.751,2.215q-.751.989-2,2.947a9.3,9.3,0,0,0-1.365,2.709l-.277,1.463A4.87,4.87,0,0,0,20.883-36.782Zm7.96,14.752.554-.989a4.9,4.9,0,0,1,.614-.732,5.143,5.143,0,0,0,.812-1.938,5.613,5.613,0,0,1,.97-2.156,2,2,0,0,1,1.564-.593,3.353,3.353,0,0,1,1.564.573q.97.573,1.9,3.461a15.774,15.774,0,0,1,.93,4.074,3.574,3.574,0,0,0,.277,1.206A7.787,7.787,0,0,1,38.383-18a4.513,4.513,0,0,0-.316.751l.079,1.622-.475,1.305v.949a3.141,3.141,0,0,0-.475.989.851.851,0,0,0,.158.475,6.726,6.726,0,0,0,2.252-1.285,1.729,1.729,0,0,1,.77-.613,4.125,4.125,0,0,0,1.244-1.028l.75-.4q.395-.475.671-.85a1.563,1.563,0,0,1,.651-.534,4.228,4.228,0,0,0,.888-.554,10.5,10.5,0,0,1,1.5-.91l.395-.475a4.454,4.454,0,0,1,1.4-1.068,6.066,6.066,0,0,1,.888-.4q.277,0,.573.732a3.83,3.83,0,0,1,.3,1.444,1.8,1.8,0,0,1-.771,1.325,10.979,10.979,0,0,0-1.047.969,2.577,2.577,0,0,1-1.264.554q-.079.04-1.3,1.622l-.79.475-.395.514q-.079.158-1.067.316-.04,0-.178.4t-.85.554A10.4,10.4,0,0,0,40.509-9.65l-.83.158a2.785,2.785,0,0,1-.395.91q-.949.237-1.067.791a1.494,1.494,0,0,1-.395.158l-.158.119a4.12,4.12,0,0,1-1.778.87l-.908.237-.316.475q0,.2-.968.514a3.6,3.6,0,0,0-1.442.791l-.672.514a3.964,3.964,0,0,0-1.541.87h-.554a3.776,3.776,0,0,0-1.738.811,3.751,3.751,0,0,1-1.9.811A6.041,6.041,0,0,1,22.709-2.2a4.977,4.977,0,0,1-1.4-1.424A11.85,11.85,0,0,0,20.3-4.983a1.454,1.454,0,0,1-.455-.831.743.743,0,0,1,.375-.554,3.289,3.289,0,0,0,.81-1.127q.434-.85,2.213-1.088a2.722,2.722,0,0,0,.573-.237,1.986,1.986,0,0,1,.81-.237q.4,0,.988.712,0,.079.158.079l.632-.079A1.407,1.407,0,0,0,27-8.029a3.134,3.134,0,0,0,2.015-.949l.158-.079h.316q.119,0,.395-.672l.672-1.384,1.383-1.78v-.4A3.3,3.3,0,0,1,32.173-14v-.593q0-.356.474-.455t.474-.494l-.079-.316a1.334,1.334,0,0,1-.316-.672l.395-.791-.079-.831.158-.316a4.74,4.74,0,0,1-.158-.633l.158-.989q0-.04-.218-.751t-.336-.712q-.237,0-1.5,1.226a7.91,7.91,0,0,0-1.5,1.74,2.191,2.191,0,0,1-1.01.929,2.467,2.467,0,0,0-1.05.929,1.035,1.035,0,0,1-.673.593L24.25-14l-2.89,2.136q-.317.356-.4.356-1.465,0-1.465-1.622a5.751,5.751,0,0,1,.594-1.859l.416-.237q.139-.079.139-.119t-.079-.04l.237.158h.079a12.592,12.592,0,0,1,1.9-1.147,1.625,1.625,0,0,0,.792-.87l1.663-1.187a23.427,23.427,0,0,0,1.94-1.74A11.4,11.4,0,0,0,28.842-22.03ZM-96.187,46.3l.237-.87.989-1.068a.228.228,0,0,0,.079-.158v-.237q0-.593,1.226-1.305.079-.989,1.345-1.463l.2-.158v-.316q0-.593.85-.791a2.4,2.4,0,0,0,1.325-.751,6.22,6.22,0,0,0,2.255-1.7q.158-.316.4-.316l.91-.079q1.148-1.226,1.464-1.266a1.589,1.589,0,0,0,.673-.277,2.738,2.738,0,0,1,1.029-.356,15.662,15.662,0,0,1,2.81-1.622h.831a1.123,1.123,0,0,0,.534-.316,2.322,2.322,0,0,1,1.148-.435,14.074,14.074,0,0,0,2.058-.534,19.689,19.689,0,0,1,2.078-.573l.751-.4h1.227l.4-.316,2.494-.316,2.532-.593.713.079.515-.079.87.2a1.51,1.51,0,0,0,.535-.178,1.633,1.633,0,0,1,.693-.178,7.845,7.845,0,0,1,2.157.277,10.117,10.117,0,0,0,1.484.336,2.528,2.528,0,0,1,.831.218,1.39,1.39,0,0,0,.4.158l1.029-.079q.079,0,.336.277a1.717,1.717,0,0,0,.732.435h.713a.322.322,0,0,0,.237.079,9.04,9.04,0,0,0,1.7.989q.871.672.91.712.316-.119,2.453,1.661a14.178,14.178,0,0,1,2.731,2.729l.831,1.068.4,1.028.4.672a28.718,28.718,0,0,1,1.148,3.8l.316.791a.538.538,0,0,1,.079.356l-.237,1.107L-44.071,48a4.65,4.65,0,0,1-.316,1.384,2.2,2.2,0,0,1,.158.475q0,.079-.316,1.246a9.552,9.552,0,0,0-.316,1.365l.158.791q0,.158-.336.494t-.336.494a1.934,1.934,0,0,1-.277.989q-.277.475-.356.633l-.672,1.107q-.159.593-.4.672t-.237.554q-.079.079-.554.475l-.4.593-1.623,1.7a4.44,4.44,0,0,1-1.9,2.017l-.475.475q-2.137,1.74-2.612,2.057a3.461,3.461,0,0,0-.792.712,3.473,3.473,0,0,1-1.029.791,4.964,4.964,0,0,1-.989.831l-.554-.079a1.65,1.65,0,0,1-.673.672,3.484,3.484,0,0,0-.594.356.608.608,0,0,1-.277.158,1.781,1.781,0,0,1-.356-.079,2.3,2.3,0,0,1-1.089.87,5.965,5.965,0,0,0-1.049.514,1.426,1.426,0,0,1-.435.237l-.633-.237q0,.87-.633.949a2.557,2.557,0,0,0-1.068.356l-.831-.079a5.68,5.68,0,0,1-4.2,1.463q-.514.633-.672.633l-.713-.158a1.275,1.275,0,0,1-.554.158,9.6,9.6,0,0,0-1.464.4,2.023,2.023,0,0,0-1.148-.316l.079.672q0,.4-1.068.4a1.97,1.97,0,0,1-.871-.237,2.8,2.8,0,0,1-.594.158q-.237,0-.356-.3t-.2-.3a2.974,2.974,0,0,1-2.77,1.305q-.2,0-2.256.514l-.475.079a.7.7,0,0,1-.316-.079l-.673-.079a2.175,2.175,0,0,1-.633-.2q-.237.435-.4.435a9.164,9.164,0,0,0-1.86.237,4.961,4.961,0,0,0-1.642-.3,2.6,2.6,0,0,1-1.6-.455h-.079a.907.907,0,0,0-.277.079h-.158a.933.933,0,0,1-.4-.119,2.759,2.759,0,0,0-.771-.2,1.812,1.812,0,0,1-1.088-.85,2.42,2.42,0,0,1-.554-1.325,1.927,1.927,0,0,1,.633-1.384,1.855,1.855,0,0,1,1.305-.633,2.4,2.4,0,0,1,.87.237h.435l.633.079.237-.079q-.158-.554-.158-.593a2.746,2.746,0,0,1,.831-2.017l.554-1.542a1.561,1.561,0,0,1,.475-.435.871.871,0,0,0,.4-.751l.357-.831.079-.554.4-.554a2.154,2.154,0,0,0,.4-.831.738.738,0,0,1,.554-.554,1.72,1.72,0,0,1,.574-1.345q.574-.514.574-.791,0-.791.554-.87a.429.429,0,0,0,.2-.316,1.28,1.28,0,0,0-.2-.514q.277-.791.772-.87a1.983,1.983,0,0,0,.614-.158.374.374,0,0,1-.317-.4,1.1,1.1,0,0,1,.237-.672l.4-1.028a2.2,2.2,0,0,1,.989-.989.648.648,0,0,1-.237-.4q0-.079.237-.316l.554.158a.07.07,0,0,1,.08-.079l.079-.91-.079-.554a3.142,3.142,0,0,1,.91-.514l.159-.4a3.613,3.613,0,0,1-1.068-.158,7.082,7.082,0,0,0-1.109.554q-.079.119-.672.119h-.238a5.439,5.439,0,0,1-.712-.2.965.965,0,0,0-.336.376q-.178.3-.257.3l-1.187-.4q-.158,0-.613.435a1.292,1.292,0,0,1-.851.435,1.84,1.84,0,0,1-.672-.237,2.958,2.958,0,0,1-1.5.237,2.706,2.706,0,0,0-1.068.237l-.633-.079-.514.079a4.959,4.959,0,0,1-1.187-.712,4.131,4.131,0,0,1-.751.158l-.633-.316a3.2,3.2,0,0,0-1.009-.356,2.2,2.2,0,0,1-.712-.2l-.376-.178a3.656,3.656,0,0,1-.356-.376,1.89,1.89,0,0,0-.712-.514.647.647,0,0,1-.4-.672l-.158-1.78a1.532,1.532,0,0,1,.2-.633,1.621,1.621,0,0,0,.2-.712A.944.944,0,0,1-96.187,46.3Zm9.424,3.955h.158q.633,0,.633.514a.769.769,0,0,1-.158.4.607.607,0,0,0,.237.079q.158,0,.554-.613t2.057-.613a.384.384,0,0,1,.2.079.384.384,0,0,0,.2.079q.079,0,.356-.237A.792.792,0,0,1-82.1,49.7l1.78-.4q2.531-.4,2.531-.989l-.079-.554a5.479,5.479,0,0,1,.732-.969,2.049,2.049,0,0,0,.573-1.365l.237-.91v-.4q0-1.068,1.463-1.305v-.079l-.4-1.226.079-.158q.554-.277.554-.4A1.711,1.711,0,0,0-75,40.469a4.539,4.539,0,0,1-.376-2.432q0-1.147,1.305-1.147a4.01,4.01,0,0,1,3.045,1.5,4.918,4.918,0,0,1,1.345,3.362,10.624,10.624,0,0,1-1.384,4.153l-.237.87h.633l.989-.158.713.079a2.855,2.855,0,0,0,1.187-.316,4.364,4.364,0,0,1,1.246-.4,2.532,2.532,0,0,0,1.128-.475q1.148-.277,1.959-.4a4.431,4.431,0,0,0,1.523-.514h.2q.079,0,.317.316h.079a.607.607,0,0,0,.237-.079,1.678,1.678,0,0,1,1.048-.85,2.355,2.355,0,0,0,1.049-.613l.672-.712a7.028,7.028,0,0,1,1.286-.85,4.383,4.383,0,0,1,1.919-.771q1.227,0,1.464.949l.237.672v.079q0,.989-1.563,2.413a9.322,9.322,0,0,1-4.134,2.057,20.641,20.641,0,0,1-3.125.633q-.237,0-.475-.4l-.831.237-.237.4q0,.079-.159.079l-.475-.316h-.158a4.4,4.4,0,0,1-1.483.712q-1.088.356-1.681.593h-.792a5.579,5.579,0,0,0-1.74.4l-.712.079a11.506,11.506,0,0,0-1.543.316,3.228,3.228,0,0,0-.593,1.068l-.989,2.175a8.771,8.771,0,0,1-.672,1.226l-.593.949a.07.07,0,0,0-.079.079l.2.593v.079a24.455,24.455,0,0,0-3.362,5.7,32.874,32.874,0,0,1-2,4.37,23.923,23.923,0,0,0-1.365,2.709,9.221,9.221,0,0,1-.514,1.187,2.093,2.093,0,0,0-.237.514q0,.2.237.2h.316a1.615,1.615,0,0,1,.87-.4q.435-.04.91-.119l.435.158h.633a6.014,6.014,0,0,0,.672-.4l.316.079.712-.079.673.079a.688.688,0,0,0,.277-.119,1.314,1.314,0,0,1,.514-.158,1,1,0,0,0,.475-.158.48.48,0,0,1,.237-.119l.357.079a.228.228,0,0,0,.158.079q.237,0,.475-.633l.712.237q0-.593.356-.593a5.043,5.043,0,0,0,1.266-.079l.435.079h.079a1.734,1.734,0,0,0,.475-.237l4.312-1.622a5.8,5.8,0,0,0,1.78-1.028l.791-.356a4.391,4.391,0,0,0,1.068-.633.648.648,0,0,1,.4-.237,1.51,1.51,0,0,0,1.543-.989,4.566,4.566,0,0,0,.633-.475l.4-.079a3.8,3.8,0,0,0,1.306-.712l.751-.593a1.5,1.5,0,0,1,.871-.316,9.139,9.139,0,0,1,2.1-2.1l.593-.316a1.571,1.571,0,0,1,.554-1.068,1.793,1.793,0,0,0,.613-.89q.139-.494.455-.494h.237a.14.14,0,0,0,.158-.158l-.079-.712q0-.672.791-.672v-.237l-.079-.633v-.079a.828.828,0,0,1,.613-.87.758.758,0,0,0,.613-.751,3.75,3.75,0,0,0-.119-.91,4.2,4.2,0,0,1-.119-.554q0-.751,1.068-1.226l.079-.158q0-.079-.3-.316a.643.643,0,0,1-.3-.475,1.91,1.91,0,0,1,.158-.514,2.2,2.2,0,0,0,.158-.475,1.233,1.233,0,0,0-.2-.4,1.132,1.132,0,0,1-.2-.593,1.866,1.866,0,0,1,.237-.791,1.91,1.91,0,0,0,.237-.633,1.9,1.9,0,0,0-.079-.593q-.475-.237-.475-.554v-.158l.079-.316-.079-.514.158-.475q-.237-.712-.4-1.4a2.423,2.423,0,0,0-.534-1.107q-.376-.415-.376-.573v-.079l.2-.554q0-.079-.277-.158a12.56,12.56,0,0,0-5.342-4.074q-3.324-1.384-3.4-1.384l-.871.079a4.522,4.522,0,0,0-.752-.316l-.4.079a.228.228,0,0,1-.158.079,2.152,2.152,0,0,1-.713-.316l-.989.079-.989-.079a8.533,8.533,0,0,0-2.968.158l-3.165.514a8.628,8.628,0,0,0-1.306.4,9.074,9.074,0,0,1-2.612.791h-.95q-.079,0-.475.4a7.494,7.494,0,0,1-2.531.989,2.348,2.348,0,0,1-.929.653.983.983,0,0,0-.534.3.429.429,0,0,1-.316.2h-.554a1.368,1.368,0,0,0-.949.633,6.942,6.942,0,0,1-2.373,1.463l-.435.4-.791.435a.762.762,0,0,0-.4.316l-.158.158a1.79,1.79,0,0,0-1.266.91,1.178,1.178,0,0,1-.732.751.757.757,0,0,0-.573.593,1.333,1.333,0,0,1-.593.791,8.367,8.367,0,0,0-1.542,1.839A4.792,4.792,0,0,0-92.617,48a3.649,3.649,0,0,0,.475,1.463,1.494,1.494,0,0,0,1.384.949,2.9,2.9,0,0,1,1.147.178,1.762,1.762,0,0,0,.712.178A4,4,0,0,0-86.763,50.258Zm45.176,7.4.593-.158.237-.514a10.389,10.389,0,0,0,2.769-2.175.86.86,0,0,1,.356-.316,2.235,2.235,0,0,0,.593-.554,4.754,4.754,0,0,1,3.48-1.463q2.373,0,2.531,2.887l.237.593a15.237,15.237,0,0,1,.89,2.254,10.154,10.154,0,0,1,.573,2.1A3.981,3.981,0,0,1-30,62.439a15.2,15.2,0,0,0-2.65,2.966l-.4.277a7.968,7.968,0,0,1-.831,1.424q-.791.277-.791.593v.712a.78.78,0,0,1-.178.316,5.943,5.943,0,0,0-.494.91l-.316.475a1.735,1.735,0,0,0-.316.653,2.989,2.989,0,0,1-.455.89,1.194,1.194,0,0,0-.3.633q0,.593,1.542.593a2.969,2.969,0,0,0,.593-.237l.554.158a1.138,1.138,0,0,0,.4-.257,2.476,2.476,0,0,1,.969-.415,3.749,3.749,0,0,0,1.147-.475,5.524,5.524,0,0,1,1.186-.554,4.139,4.139,0,0,0,1.325-.771,4.454,4.454,0,0,1,1.246-.771,3.6,3.6,0,0,0,1.147-.732,8.83,8.83,0,0,1,1.206-.929A16,16,0,0,0-23.275,66a4.469,4.469,0,0,1,1.3-.831,4.707,4.707,0,0,0,.692-1.048q.613-1.048,1.4-1.048.831,0,.831.791a1.172,1.172,0,0,1-.4.831v.237l.079.633a.647.647,0,0,1,.079.356q0,.158-.3.475a1.759,1.759,0,0,0-.415.811.907.907,0,0,1-.751.653q-.237.87-.613.989a3.156,3.156,0,0,0-1.048.791,17.527,17.527,0,0,1-1.9,1.582,13.157,13.157,0,0,0-1.681,1.4q-.455.494-.613.494a.815.815,0,0,1-.316-.158.815.815,0,0,0-.316-.158q-.237,0-.316.554l-.158.4a2.572,2.572,0,0,1-.593.316l-.237-.079h-.158q-.475,0-.475.356l.237.4v.079q0,.554-.633.554a8.53,8.53,0,0,0-2.531,1.463l-1.147.237-.949.514a1.91,1.91,0,0,0-.593-.277l-.633.2-1.147.079q-.04,0-1.443-.791a3.442,3.442,0,0,1-1.681-1.582,11.263,11.263,0,0,0-.712-1.6,3.026,3.026,0,0,1-.435-1.127,8.2,8.2,0,0,1,.316-2.709,8.111,8.111,0,0,0,.4-1.206,2,2,0,0,1,.455-.85,3.675,3.675,0,0,0,.613-1.483,18.759,18.759,0,0,1,1.582-2.808,3.621,3.621,0,0,0,.672-1.266l.514-.712a2.12,2.12,0,0,0,.237-.613q.158-.534.4-.613a2.148,2.148,0,0,0,.316-.712q0-1.147-1.028-1.147-.2,0-.435.415a2.383,2.383,0,0,1-1.088.811,4.507,4.507,0,0,0-1.048.593,3.228,3.228,0,0,1-.851.494,2.908,2.908,0,0,0-1.128.929l-.672.316q-.317.751-.554.831t-1.463.4a2.341,2.341,0,0,0-.4.475,1.057,1.057,0,0,1-.91.435,10.376,10.376,0,0,0-.95,1.107,3.134,3.134,0,0,0-.831.316l-.792.2a3.593,3.593,0,0,0-.692.751,1.64,1.64,0,0,1-1.4.514q-.593,0-.593-.949a3.823,3.823,0,0,1,1.365-3.085,4.951,4.951,0,0,1,2-1.226.878.878,0,0,0,.791-.475,1.308,1.308,0,0,1,.771-.653,4.478,4.478,0,0,0,1.424-1.147,4.188,4.188,0,0,1,1.76-1.206Zm26.95,3.085.831-.672a1,1,0,0,0,1.027-.989,2.127,2.127,0,0,1,1.3-1.582l.475-.672A10.646,10.646,0,0,1-7.76,55.281a3.175,3.175,0,0,0,.91-.712.227.227,0,0,1,.158-.079l.633.158a4.307,4.307,0,0,0,1.324-.277,4.822,4.822,0,0,1,1.561-.277l1.66-.079a2.061,2.061,0,0,1,.652.237,2.768,2.768,0,0,0,1.205.237,2.158,2.158,0,0,1,1.6.791,2.265,2.265,0,0,1,.731,1.463,3.62,3.62,0,0,1-1.263,2.492A4.854,4.854,0,0,1-.6,60.66a4.763,4.763,0,0,1-1.026.85,2.887,2.887,0,0,0-.73.554,1.024,1.024,0,0,1-.612.376.285.285,0,0,1-.237-.1.285.285,0,0,0-.237-.1q-.632,0-1.381,1.542l-.711-.079a2.085,2.085,0,0,0-.869.949.8.8,0,0,1-.829.514q-1.461,1.463-1.974,1.463a3.3,3.3,0,0,1-.553-.158,1.313,1.313,0,0,0-.316.831q0,.475-.632.554l-.513.475-.395-.079-.79.831a2.308,2.308,0,0,0-1.224.4q-.079.475-.237,1.206t-.158.811q0,1.147,2.1,1.147l1.9-.277a2.662,2.662,0,0,0,1.4-.4,2.663,2.663,0,0,1,1.4-.4,2.511,2.511,0,0,0,.712-.158l.4.158a2.627,2.627,0,0,1,1.028-1.068A2.485,2.485,0,0,1-3.9,70.033l.4-.237a1.019,1.019,0,0,1,.475-.633l.316-.277a.885.885,0,0,1,.593-.316h.554l.158-.079A1.92,1.92,0,0,1-.081,67.284a1.509,1.509,0,0,0,1.068-.573.972.972,0,0,1,.771-.475,1.438,1.438,0,0,0,.929-.534,4.851,4.851,0,0,1,.93-.85,9.416,9.416,0,0,0,.772-.593.613.613,0,0,1,.376-.2q.237,0,.237.356t.158.356a.14.14,0,0,0,.158-.158,1.3,1.3,0,0,0-.079-.4v-.277a.784.784,0,0,1,.633-.791L7.652,62q.08-.831.455-.969a1.775,1.775,0,0,0,.573-.316.637.637,0,0,1,.435-.178q.514,0,.514.593l-.2,1.028.2,1.068a1.168,1.168,0,0,1-.376.653,2.829,2.829,0,0,0-.574,1.266q-.2.85-.515.929H7.929a3.354,3.354,0,0,1-1.128.89,1.231,1.231,0,0,0-.654.494L4.8,69q-.4.4-.673.712t-.435.316l-.316-.316q0-.079-.158-.079-.4,0-.5.475a1.769,1.769,0,0,1-.416.831A4.241,4.241,0,0,0,.764,71.971l-.237.079H-.186q-.514,0-.712.771a1.187,1.187,0,0,1-1.128.89,2.457,2.457,0,0,0-1.326.475.905.905,0,0,1-.356.158,5.478,5.478,0,0,0-1.108.633l-3.325,1.187a1.64,1.64,0,0,1-.515.2l-1.108.158a.638.638,0,0,1-.475-.316q-.237-.316-.316-.316l-.713.237a5.241,5.241,0,0,1-1.5.237,1.758,1.758,0,0,1-.871-.277,7.393,7.393,0,0,0-.752-.4q-1.148,0-1.623-1.78l-.475.079a11.787,11.787,0,0,1-1.068-2.808,1.334,1.334,0,0,0-.751-.455.7.7,0,0,1-.514-.771,2.951,2.951,0,0,1,.771-2.393q.771-.613.85-.929l.553-2.057a2.038,2.038,0,0,0,.4-.791l.909-1.661Q-15.191,61.846-14.637,60.739Zm8.364-2.373-.475.237a9.5,9.5,0,0,0-.929.692,9.171,9.171,0,0,1-1.5.989,4.255,4.255,0,0,0-1.5,1.958,8.973,8.973,0,0,0-.771,1.819.21.21,0,0,0,.237.237l1.345-.593a6.4,6.4,0,0,0,1.4-.91A18.645,18.645,0,0,1-6.59,61.451l.316-.316a2.57,2.57,0,0,1,.732-.573,3.96,3.96,0,0,0,.969-.811l.4-.158a2.92,2.92,0,0,1,1.365-1.305q.692-.237.692-.475,0-.475-.751-.475a2.1,2.1,0,0,0-.949.4h-.91a2.847,2.847,0,0,0-.87.475Zm18.761-.4.554-.989a4.9,4.9,0,0,1,.614-.732,5.143,5.143,0,0,0,.812-1.938,5.613,5.613,0,0,1,.97-2.156A2,2,0,0,1,17,51.563a3.353,3.353,0,0,1,1.564.573q.97.573,1.9,3.461a15.774,15.774,0,0,1,.93,4.074,3.574,3.574,0,0,0,.277,1.206A7.787,7.787,0,0,1,22.029,62a4.512,4.512,0,0,0-.316.751l.079,1.622-.475,1.305v.949a3.141,3.141,0,0,0-.475.989A.851.851,0,0,0,21,68.1a6.726,6.726,0,0,0,2.252-1.285,1.729,1.729,0,0,1,.77-.613,4.125,4.125,0,0,0,1.244-1.028l.75-.4q.395-.475.671-.85a1.563,1.563,0,0,1,.651-.534,4.229,4.229,0,0,0,.888-.554,10.5,10.5,0,0,1,1.5-.91l.395-.475a4.454,4.454,0,0,1,1.4-1.068,6.066,6.066,0,0,1,.888-.4q.277,0,.573.732a3.83,3.83,0,0,1,.3,1.444,1.8,1.8,0,0,1-.771,1.325,10.979,10.979,0,0,0-1.047.969,2.577,2.577,0,0,1-1.264.554q-.079.04-1.3,1.622l-.79.475-.395.514q-.079.158-1.067.316-.04,0-.178.4t-.85.554a10.4,10.4,0,0,0-1.462,1.463l-.83.158a2.785,2.785,0,0,1-.395.91q-.949.237-1.067.791a1.494,1.494,0,0,1-.395.158l-.158.119a4.12,4.12,0,0,1-1.778.87l-.908.237-.316.475q0,.2-.968.514a3.6,3.6,0,0,0-1.442.791l-.672.514a3.964,3.964,0,0,0-1.541.87h-.554a3.776,3.776,0,0,0-1.738.811,3.751,3.751,0,0,1-1.9.811A6.041,6.041,0,0,1,6.355,77.8a4.977,4.977,0,0,1-1.4-1.424,11.85,11.85,0,0,0-1.008-1.365,1.454,1.454,0,0,1-.455-.831.743.743,0,0,1,.375-.554,3.289,3.289,0,0,0,.81-1.127q.434-.85,2.213-1.088a2.722,2.722,0,0,0,.573-.237,1.986,1.986,0,0,1,.81-.237q.4,0,.988.712,0,.079.158.079l.632-.079a1.407,1.407,0,0,0,.593.316,3.134,3.134,0,0,0,2.015-.949l.158-.079h.316q.119,0,.395-.672l.672-1.384,1.383-1.78v-.4A3.3,3.3,0,0,1,15.818,66v-.593q0-.356.474-.455t.474-.494l-.079-.316a1.334,1.334,0,0,1-.316-.672l.395-.791-.079-.831.158-.316a4.74,4.74,0,0,1-.158-.633l.158-.989q0-.04-.218-.751t-.336-.712q-.237,0-1.5,1.226a7.91,7.91,0,0,0-1.5,1.74,2.191,2.191,0,0,1-1.01.929,2.467,2.467,0,0,0-1.05.929,1.035,1.035,0,0,1-.673.593L7.9,66l-2.89,2.136q-.317.356-.4.356-1.465,0-1.465-1.622a5.751,5.751,0,0,1,.594-1.859l.416-.237q.139-.079.139-.119t-.079-.04l.237.158H4.53a12.592,12.592,0,0,1,1.9-1.147,1.625,1.625,0,0,0,.792-.87l1.663-1.187a23.427,23.427,0,0,0,1.94-1.74A11.4,11.4,0,0,0,12.488,57.97Zm21.713,0,.554-.989a4.9,4.9,0,0,1,.614-.732,5.143,5.143,0,0,0,.812-1.938,5.613,5.613,0,0,1,.97-2.156,2,2,0,0,1,1.564-.593,3.353,3.353,0,0,1,1.564.573q.97.573,1.9,3.461a15.774,15.774,0,0,1,.93,4.074,3.574,3.574,0,0,0,.277,1.206A7.787,7.787,0,0,1,43.743,62a4.512,4.512,0,0,0-.316.751l.079,1.622-.475,1.305v.949a3.141,3.141,0,0,0-.475.989.851.851,0,0,0,.158.475,6.726,6.726,0,0,0,2.252-1.285,1.729,1.729,0,0,1,.77-.613,4.125,4.125,0,0,0,1.244-1.028l.75-.4q.395-.475.671-.85a1.563,1.563,0,0,1,.651-.534,4.228,4.228,0,0,0,.888-.554,10.5,10.5,0,0,1,1.5-.91l.395-.475a4.454,4.454,0,0,1,1.4-1.068,6.066,6.066,0,0,1,.888-.4q.277,0,.573.732a3.83,3.83,0,0,1,.3,1.444,1.8,1.8,0,0,1-.771,1.325,10.979,10.979,0,0,0-1.047.969,2.577,2.577,0,0,1-1.264.554q-.079.04-1.3,1.622l-.79.475-.395.514q-.079.158-1.067.316-.04,0-.178.4t-.85.554a10.4,10.4,0,0,0-1.462,1.463l-.83.158a2.785,2.785,0,0,1-.395.91q-.949.237-1.067.791a1.494,1.494,0,0,1-.395.158l-.158.119a4.12,4.12,0,0,1-1.778.87l-.908.237-.316.475q0,.2-.968.514a3.6,3.6,0,0,0-1.442.791l-.672.514a3.964,3.964,0,0,0-1.541.87h-.554a3.776,3.776,0,0,0-1.738.811,3.751,3.751,0,0,1-1.9.811,6.041,6.041,0,0,1-3.141-.573,4.977,4.977,0,0,1-1.4-1.424,11.85,11.85,0,0,0-1.008-1.365,1.454,1.454,0,0,1-.455-.831.743.743,0,0,1,.375-.554,3.289,3.289,0,0,0,.81-1.127q.434-.85,2.213-1.088a2.722,2.722,0,0,0,.573-.237,1.986,1.986,0,0,1,.81-.237q.4,0,.988.712,0,.079.158.079l.632-.079a1.407,1.407,0,0,0,.593.316,3.134,3.134,0,0,0,2.015-.949l.158-.079h.316q.119,0,.395-.672l.672-1.384,1.383-1.78v-.4A3.3,3.3,0,0,1,37.532,66v-.593q0-.356.474-.455t.474-.494L38.4,64.14a1.334,1.334,0,0,1-.316-.672l.395-.791-.079-.831.158-.316A4.74,4.74,0,0,1,38.4,60.9l.158-.989q0-.04-.218-.751T38,58.445q-.237,0-1.5,1.226a7.91,7.91,0,0,0-1.5,1.74,2.191,2.191,0,0,1-1.01.929,2.467,2.467,0,0,0-1.05.929,1.035,1.035,0,0,1-.673.593L29.609,66l-2.89,2.136q-.317.356-.4.356-1.465,0-1.465-1.622a5.751,5.751,0,0,1,.594-1.859l.416-.237q.139-.079.139-.119t-.079-.04l.237.158h.079a12.592,12.592,0,0,1,1.9-1.147,1.625,1.625,0,0,0,.792-.87L30.6,61.569a23.427,23.427,0,0,0,1.94-1.74A11.4,11.4,0,0,0,34.2,57.97Zm20.77,2.769.831-.672a1,1,0,0,0,1.027-.989,2.127,2.127,0,0,1,1.3-1.582l.475-.672a10.646,10.646,0,0,1,3.241-1.542,3.175,3.175,0,0,0,.91-.712.227.227,0,0,1,.158-.079l.633.158a4.307,4.307,0,0,0,1.324-.277,4.822,4.822,0,0,1,1.561-.277l1.66-.079a2.061,2.061,0,0,1,.652.237,2.768,2.768,0,0,0,1.205.237,2.158,2.158,0,0,1,1.6.791,2.265,2.265,0,0,1,.731,1.463,3.62,3.62,0,0,1-1.263,2.492,4.854,4.854,0,0,1-2.013,1.424,4.763,4.763,0,0,1-1.026.85,2.887,2.887,0,0,0-.73.554,1.024,1.024,0,0,1-.612.376.285.285,0,0,1-.237-.1.285.285,0,0,0-.237-.1q-.632,0-1.381,1.542l-.711-.079a2.085,2.085,0,0,0-.869.949.8.8,0,0,1-.829.514q-1.461,1.463-1.974,1.463a3.3,3.3,0,0,1-.553-.158,1.313,1.313,0,0,0-.316.831q0,.475-.632.554l-.513.475-.395-.079-.79.831a2.308,2.308,0,0,0-1.224.4q-.079.475-.237,1.206t-.158.811q0,1.147,2.1,1.147l1.9-.277a2.662,2.662,0,0,0,1.4-.4,2.663,2.663,0,0,1,1.4-.4,2.511,2.511,0,0,0,.712-.158l.4.158a2.627,2.627,0,0,1,1.028-1.068,2.485,2.485,0,0,1,1.187-.475l.4-.237a1.019,1.019,0,0,1,.475-.633l.316-.277a.885.885,0,0,1,.593-.316h.554l.158-.079a1.92,1.92,0,0,1,1.325-1.206,1.509,1.509,0,0,0,1.068-.573.972.972,0,0,1,.771-.475A1.438,1.438,0,0,0,72.3,65.7a4.851,4.851,0,0,1,.93-.85A9.416,9.416,0,0,0,74,64.259a.613.613,0,0,1,.376-.2q.237,0,.237.356t.158.356a.14.14,0,0,0,.158-.158,1.3,1.3,0,0,0-.079-.4v-.277a.784.784,0,0,1,.633-.791L77.262,62q.08-.831.455-.969a1.775,1.775,0,0,0,.573-.316.637.637,0,0,1,.435-.178q.514,0,.514.593l-.2,1.028.2,1.068a1.168,1.168,0,0,1-.376.653,2.829,2.829,0,0,0-.574,1.266q-.2.85-.515.929h-.237a3.354,3.354,0,0,1-1.128.89,1.231,1.231,0,0,0-.654.494L74.411,69q-.4.4-.673.712t-.435.316l-.316-.316q0-.079-.158-.079-.4,0-.5.475a1.769,1.769,0,0,1-.416.831,4.241,4.241,0,0,0-1.544,1.028l-.237.079h-.713q-.514,0-.712.771a1.187,1.187,0,0,1-1.128.89,2.457,2.457,0,0,0-1.326.475.905.905,0,0,1-.356.158,5.478,5.478,0,0,0-1.108.633l-3.325,1.187a1.64,1.64,0,0,1-.515.2l-1.108.158a.638.638,0,0,1-.475-.316q-.237-.316-.316-.316l-.713.237a5.241,5.241,0,0,1-1.5.237,1.758,1.758,0,0,1-.871-.277,7.393,7.393,0,0,0-.752-.4q-1.148,0-1.623-1.78l-.475.079a11.787,11.787,0,0,1-1.068-2.808,1.334,1.334,0,0,0-.751-.455.7.7,0,0,1-.514-.771,2.951,2.951,0,0,1,.771-2.393q.771-.613.85-.929l.553-2.057a2.038,2.038,0,0,0,.4-.791l.909-1.661Q54.419,61.846,54.972,60.739Zm8.364-2.373-.475.237a9.5,9.5,0,0,0-.929.692,9.171,9.171,0,0,1-1.5.989,4.255,4.255,0,0,0-1.5,1.958,8.973,8.973,0,0,0-.771,1.819.21.21,0,0,0,.237.237l1.345-.593a6.4,6.4,0,0,0,1.4-.91,18.645,18.645,0,0,1,1.879-1.345l.316-.316a2.57,2.57,0,0,1,.732-.573,3.96,3.96,0,0,0,.969-.811l.4-.158A2.92,2.92,0,0,1,66.8,58.287q.692-.237.692-.475,0-.475-.751-.475a2.1,2.1,0,0,0-.949.4h-.91a2.847,2.847,0,0,0-.87.475Zm19.939-.712.593-.158.237-.514a10.389,10.389,0,0,0,2.769-2.175.86.86,0,0,1,.356-.316,2.235,2.235,0,0,0,.593-.554,4.754,4.754,0,0,1,3.48-1.463q2.373,0,2.531,2.887l.237.593a15.237,15.237,0,0,1,.89,2.254,10.154,10.154,0,0,1,.573,2.1,3.981,3.981,0,0,1-.672,2.136,15.2,15.2,0,0,0-2.65,2.966l-.4.277a7.968,7.968,0,0,1-.831,1.424q-.791.277-.791.593v.712a.78.78,0,0,1-.178.316,5.943,5.943,0,0,0-.494.91l-.316.475a1.735,1.735,0,0,0-.316.653,2.989,2.989,0,0,1-.455.89,1.194,1.194,0,0,0-.3.633q0,.593,1.542.593a2.969,2.969,0,0,0,.593-.237l.554.158a1.138,1.138,0,0,0,.4-.257,2.476,2.476,0,0,1,.969-.415,3.749,3.749,0,0,0,1.147-.475,5.524,5.524,0,0,1,1.186-.554,4.138,4.138,0,0,0,1.325-.771,4.454,4.454,0,0,1,1.246-.771,3.6,3.6,0,0,0,1.147-.732,8.83,8.83,0,0,1,1.206-.929,16,16,0,0,0,2.136-1.9,4.469,4.469,0,0,1,1.3-.831,4.707,4.707,0,0,0,.692-1.048q.613-1.048,1.4-1.048.831,0,.831.791a1.172,1.172,0,0,1-.4.831v.237l.079.633a.647.647,0,0,1,.079.356q0,.158-.3.475a1.759,1.759,0,0,0-.415.811.907.907,0,0,1-.751.653q-.237.87-.613.989a3.156,3.156,0,0,0-1.048.791,17.527,17.527,0,0,1-1.9,1.582,13.157,13.157,0,0,0-1.681,1.4q-.455.494-.613.494a.815.815,0,0,1-.316-.158.815.815,0,0,0-.316-.158q-.237,0-.316.554l-.158.4a2.572,2.572,0,0,1-.593.316l-.237-.079H96.17q-.475,0-.475.356l.237.4v.079q0,.554-.633.554a8.53,8.53,0,0,0-2.531,1.463l-1.147.237-.949.514a1.91,1.91,0,0,0-.593-.277l-.633.2-1.147.079q-.04,0-1.443-.791a3.442,3.442,0,0,1-1.681-1.582,11.263,11.263,0,0,0-.712-1.6,3.026,3.026,0,0,1-.435-1.127,8.2,8.2,0,0,1,.316-2.709,8.111,8.111,0,0,0,.4-1.206,2,2,0,0,1,.455-.85,3.675,3.675,0,0,0,.613-1.483,18.759,18.759,0,0,1,1.582-2.808,3.621,3.621,0,0,0,.672-1.266l.514-.712a2.12,2.12,0,0,0,.237-.613q.158-.534.4-.613a2.148,2.148,0,0,0,.316-.712q0-1.147-1.028-1.147-.2,0-.435.415a2.383,2.383,0,0,1-1.088.811,4.507,4.507,0,0,0-1.048.593,3.228,3.228,0,0,1-.851.494,2.908,2.908,0,0,0-1.128.929l-.672.316q-.317.751-.554.831t-1.463.4a2.341,2.341,0,0,0-.4.475,1.057,1.057,0,0,1-.91.435A10.376,10.376,0,0,0,79,65.168a3.134,3.134,0,0,0-.831.316l-.792.2a3.593,3.593,0,0,0-.692.751,1.64,1.64,0,0,1-1.4.514q-.593,0-.593-.949a3.823,3.823,0,0,1,1.365-3.085,4.951,4.951,0,0,1,2-1.226.878.878,0,0,0,.791-.475,1.308,1.308,0,0,1,.771-.653,4.478,4.478,0,0,0,1.424-1.147,4.188,4.188,0,0,1,1.76-1.206Z" transform="translate(97.216 52.247)" fill="#e91c69"/>
</svg>
