<svg xmlns="http://www.w3.org/2000/svg" width="134.401" height="269.441" viewBox="0 0 134.401 269.441">
  <g id="Group_1515" data-name="Group 1515" transform="translate(-293.297 -38)">
    <rect id="Rectangle_80" data-name="Rectangle 80" width="132.576" height="269.441" rx="6" transform="translate(293.297 38)" fill="#e67aa3"/>
    <path id="Path_176" data-name="Path 176" d="M570.4,199H555.193v1.829a8.668,8.668,0,0,1-8.673,8.668H498.155a8.668,8.668,0,0,1-8.673-8.668V199H475.243a10.529,10.529,0,0,0-10.529,10.529V443.894a10.529,10.529,0,0,0,10.529,10.529H570.4a10.529,10.529,0,0,0,10.529-10.529V209.547A10.529,10.529,0,0,0,570.4,199Z" transform="translate(-162.981 -153.982)" fill="#fff"/>
    <rect id="Rectangle_76" data-name="Rectangle 76" width="3.963" height="32.661" rx="1.982" transform="translate(423.735 99.122)" fill="#e67aa3"/>
    <rect id="Rectangle_81" data-name="Rectangle 81" width="18.513" height="3.757" rx="1.879" transform="translate(346.797 46.047)" fill="#e6e8ec"/>
    <ellipse id="Ellipse_5" data-name="Ellipse 5" cx="2.134" cy="2.134" rx="2.134" ry="2.134" transform="translate(368.11 45.792)" fill="#e6e8ec"/>
    <path id="Path_1036" data-name="Path 1036" d="M589.719,522.312,577.85,534.386a.214.214,0,0,0,0,.309l8.327,8.855a1.433,1.433,0,1,1-2.026,2.026l-8.284-8.823a.226.226,0,0,0-.317,0l-2.018,2.038a8.87,8.87,0,0,1-6.345,2.669,9.064,9.064,0,0,1-6.456-2.744l-1.939-1.983a.226.226,0,0,0-.317,0l-8.264,8.8a1.433,1.433,0,1,1-2.026-2.026l8.3-8.835a.238.238,0,0,0,0-.309l-11.868-12.075a.218.218,0,0,0-.373.155v24.161a3.537,3.537,0,0,0,3.525,3.525h38.809a3.537,3.537,0,0,0,3.525-3.525V522.467a.218.218,0,0,0-.381-.155Z" transform="translate(-206.72 -365.952)" fill="#e67aa3"/>
    <path id="Path_1037" data-name="Path 1037" d="M569.234,532.8a6,6,0,0,0,4.33-1.784l17.285-17.594a3.45,3.45,0,0,0-2.181-.793H549.831a3.426,3.426,0,0,0-2.181.793l17.289,17.594A5.98,5.98,0,0,0,569.234,532.8Z" transform="translate(-208.778 -360.16)" fill="#e67aa3"/>
    <path id="Path_1038" data-name="Path 1038" d="M540.444,452.69a39.654,39.654,0,1,0,39.634,39.641A39.654,39.654,0,0,0,540.444,452.69Zm0,74a34.368,34.368,0,1,1,34.368-34.368A34.368,34.368,0,0,1,540.444,526.692Z" transform="translate(-180.488 -323.988)" opacity="0.1"/>
  </g>
</svg>
