<svg xmlns="http://www.w3.org/2000/svg" width="27.05" height="27.051" viewBox="0 0 27.05 27.051">
  <g id="phone-call" opacity="0.8">
    <path id="Path_1" data-name="Path 1" d="M27.048,21.8a4,4,0,0,0-1.227-2.75,9.828,9.828,0,0,0-3.891-2.585,4.355,4.355,0,0,0-4.472,1.269l-.006.006-1.429,1.418a21.409,21.409,0,0,1-4.5-3.484l-.139-.139a21.412,21.412,0,0,1-3.484-4.5L9.314,9.6l.006-.006a4.355,4.355,0,0,0,1.269-4.472A9.829,9.829,0,0,0,8,1.231a4.021,4.021,0,0,0-5.58-.2l-.03.027L2.352,1.1A8.574,8.574,0,0,0,0,7.376c.022,4.344,2.409,9.312,6.386,13.289A25.754,25.754,0,0,0,8.92,22.872a1.057,1.057,0,0,0,1.286-1.677,23.66,23.66,0,0,1-2.325-2.023C4.289,15.579,2.133,11.166,2.114,7.366A6.528,6.528,0,0,1,3.827,2.61L3.835,2.6a1.9,1.9,0,0,1,2.647.1C9.218,5.535,9.02,6.875,7.811,8.114L5.852,10.088a1.057,1.057,0,0,0-.215,1.174,21.352,21.352,0,0,0,4.249,5.766l.139.139a21.348,21.348,0,0,0,5.765,4.248,1.056,1.056,0,0,0,1.174-.215l1.973-1.959c1.24-1.209,2.579-1.407,5.416,1.329a1.9,1.9,0,0,1,.1,2.647l-.008.008a6.508,6.508,0,0,1-4.707,1.714h-.048A13.7,13.7,0,0,1,14.472,23.7a1.057,1.057,0,0,0-.837,1.941,15.588,15.588,0,0,0,6.04,1.407h.059a8.554,8.554,0,0,0,6.22-2.352l.039-.041.027-.03A4,4,0,0,0,27.048,21.8Z" transform="translate(0 -0.002)" fill="#fff"/>
  </g>
</svg>
