<svg xmlns="http://www.w3.org/2000/svg" width="21.662" height="27.051" viewBox="0 0 21.662 27.051">
  <g id="pin" transform="translate(0)" opacity="0.8">
    <g id="Group_4" data-name="Group 4" transform="translate(4.227 4.226)">
      <g id="Group_3" data-name="Group 3" transform="translate(0)">
        <path id="Path_3" data-name="Path 3" d="M137.6,80a6.6,6.6,0,1,0,1.811,12.957,1.057,1.057,0,1,0-.579-2.033,4.485,4.485,0,1,1,3.07-3.027,1.057,1.057,0,0,0,2.024.607A6.609,6.609,0,0,0,137.6,80Z" transform="translate(-131 -80)" fill="#fff"/>
      </g>
    </g>
    <g id="Group_6" data-name="Group 6" transform="translate(0.001 0)">
      <g id="Group_5" data-name="Group 5" transform="translate(0)">
        <path id="Path_4" data-name="Path 4" d="M69.488,3.168A10.831,10.831,0,0,0,51,10.821a11.317,11.317,0,0,0,1.788,6.04A32.168,32.168,0,0,0,56.613,21.6a36.068,36.068,0,0,1,4.011,4.957,1.057,1.057,0,0,0,.893.492h.634a1.057,1.057,0,0,0,.893-.492A36.068,36.068,0,0,1,67.055,21.6a32.161,32.161,0,0,0,3.822-4.742,11.319,11.319,0,0,0,1.788-6.042A10.76,10.76,0,0,0,69.488,3.168ZM65.494,20.177a43.552,43.552,0,0,0-3.661,4.387,43.542,43.542,0,0,0-3.661-4.387c-2.711-2.969-5.053-5.534-5.057-9.357a8.717,8.717,0,0,1,17.435,0C70.548,14.643,68.206,17.208,65.494,20.177Z" transform="translate(-51.003)" fill="#fff"/>
      </g>
    </g>
  </g>
</svg>
