<svg id="Symbol_22_1" data-name="Symbol 22 – 1" xmlns="http://www.w3.org/2000/svg" width="27" height="27" viewBox="0 0 27 27">
  <path id="Rectangle_49" data-name="Rectangle 49" d="M5,0h7a0,0,0,0,1,0,0V12a0,0,0,0,1,0,0H0a0,0,0,0,1,0,0V5A5,5,0,0,1,5,0Z" fill="#e91c69"/>
  <path id="Rectangle_52" data-name="Rectangle 52" d="M0,0H7a5,5,0,0,1,5,5v7a0,0,0,0,1,0,0H0a0,0,0,0,1,0,0V0A0,0,0,0,1,0,0Z" transform="translate(15)" fill="#e91c69"/>
  <path id="Rectangle_50" data-name="Rectangle 50" d="M0,0H12a0,0,0,0,1,0,0V12a0,0,0,0,1,0,0H5A5,5,0,0,1,0,7V0A0,0,0,0,1,0,0Z" transform="translate(0 15)" fill="#e91c69"/>
  <path id="Rectangle_51" data-name="Rectangle 51" d="M0,0H12a0,0,0,0,1,0,0V7a5,5,0,0,1-5,5H0a0,0,0,0,1,0,0V0A0,0,0,0,1,0,0Z" transform="translate(15 15)" fill="#e91c69"/>
</svg>
