<svg xmlns="http://www.w3.org/2000/svg" width="23.436" height="23.42" viewBox="0 0 23.436 23.42">
  <g id="user" transform="translate(0.508 0.5)">
    <g id="user-2" data-name="user" transform="translate(0 0)" opacity="0.8">
      <g id="Group_7" data-name="Group 7" transform="translate(0)">
        <path id="Path_5" data-name="Path 5" d="M22.363,19.211a.876.876,0,0,0-1.715.357.915.915,0,0,1-.185.767.89.89,0,0,1-.7.333H2.658a.89.89,0,0,1-.7-.333.915.915,0,0,1-.185-.767,9.676,9.676,0,0,1,9.206-7.662q.116,0,.232,0t.233,0a9.634,9.634,0,0,1,7.781,4.276.876.876,0,1,0,1.455-.975,11.392,11.392,0,0,0-5.9-4.485,5.955,5.955,0,1,0-7.129,0,11.391,11.391,0,0,0-7.59,8.487,2.661,2.661,0,0,0,2.6,3.209h17.1a2.661,2.661,0,0,0,2.6-3.209ZM7.007,5.955a4.2,4.2,0,1,1,4.416,4.2l-.213,0-.212,0A4.209,4.209,0,0,1,7.007,5.955Z" transform="translate(0)" fill="#7b7b7b" stroke="#7b7b7b" stroke-width="1"/>
      </g>
    </g>
  </g>
</svg>
